# Blender 4.4.3
# www.blender.org
mtllib cuby.mtl
o Cube
v -0.646272 0.400549 -0.872329
v -0.646272 -0.255543 -0.872329
v -0.646272 0.400549 -0.616578
v -0.646272 -0.255543 -0.616578
v 0.664146 -0.884840 0.598836
v 0.664146 0.239493 0.598836
v 0.664146 -0.884840 0.219805
v 0.664146 0.239493 0.219805
v 0.849093 -0.884840 0.598836
v 0.849093 0.239493 0.598836
v 0.849093 -0.884840 0.219805
v 0.849093 0.239493 0.219805
v -0.926495 -0.121944 1.238669
v -0.926495 1.250961 1.238669
v -0.926495 -0.121944 -0.134236
v -0.926495 1.250961 -0.134236
v 0.446409 -0.121944 1.238669
v 0.446409 1.250961 1.238669
v 0.446409 -0.121944 -0.134236
v 0.446409 1.250961 -0.134236
v 0.532692 -0.807513 0.995583
v -0.205223 0.040782 0.995583
v 0.532692 -0.807513 0.616551
v -0.205223 0.040782 0.616551
v 0.672232 -0.686130 0.995583
v -0.065683 0.162166 0.995583
v 0.672232 -0.686130 0.616551
v -0.065683 0.162166 0.616551
v 0.452639 1.279042 -0.884921
v -0.858187 0.176659 -0.884921
v 0.452639 1.279042 -1.263952
v -0.858187 0.176659 -1.263952
v 0.317345 1.439919 -0.884921
v -0.993482 0.337535 -0.884921
v 0.317345 1.439919 -1.263952
v -0.993482 0.337535 -1.263952
v 0.940264 -0.548968 0.272979
v 0.940971 0.705000 -0.893674
v 1.319296 -0.549172 0.272989
v 1.320002 0.704796 -0.893664
v 0.940337 -0.405786 0.426877
v 0.941044 0.848183 -0.739776
v 1.319368 -0.405990 0.426888
v 1.320075 0.847979 -0.739765
v 1.497542 -1.434330 -0.209229
v 1.497542 -0.309997 -0.209229
v -1.319852 -2.635221 -0.077077
v -1.319852 0.226407 -0.077077
v -1.319852 -2.635221 -0.940875
v -1.319852 0.226407 -0.940875
v -0.456054 -2.635221 -0.077077
v -0.456054 0.226407 -0.077077
v -0.456054 -2.635221 -0.940875
v -0.456054 0.226407 -0.940875
v -1.675025 0.071154 0.380363
v -1.675025 0.552877 0.380363
v -1.675025 0.071154 -1.718503
v -1.675025 0.552877 -1.718503
v 0.423841 0.071154 0.380363
v 0.423841 0.552877 0.380363
v 0.423841 0.071154 -1.718503
v 0.423841 0.552877 -1.718503
v -0.178799 0.400549 -0.872329
v -0.178799 -0.255543 -0.872329
v -0.178799 0.400549 -0.616578
v -0.178799 -0.255543 -0.616578
v 0.172295 1.709362 -1.355523
v 1.545199 0.336457 0.017382
v 1.545199 1.709362 0.017382
v 1.545199 0.336457 -1.355523
v 1.545199 1.709362 -1.355523
v 0.373209 -1.434330 1.790771
v 0.373209 -0.309997 1.790771
v 0.373209 -1.434330 -0.209229
v 0.373209 -0.309997 -0.209229
v 1.497542 -1.434330 1.790771
v 1.497542 -0.309997 1.790771
v -0.684563 -1.000000 -0.684563
v -0.684563 1.000000 0.684563
v -0.684563 -1.000000 0.684563
v 0.172295 0.336457 0.017382
v 0.172295 1.709362 0.017382
v 0.172295 0.336457 -1.355523
v -0.684563 1.000000 -0.684563
v 0.684563 -1.000000 0.684563
v 0.684563 1.000000 0.684563
v 0.684563 -1.000000 -0.684563
v 0.684563 1.000000 -0.684563
vn -0.0000 1.0000 -0.0000
vn -0.0000 -0.0000 1.0000
vn -1.0000 -0.0000 -0.0000
vn -0.0000 -1.0000 -0.0000
vn 1.0000 -0.0000 -0.0000
vn -0.0000 -0.0000 -1.0000
vn -0.7545 -0.6563 -0.0000
vn 0.7545 0.6563 -0.0000
vn 0.6563 -0.7545 -0.0000
vn -0.6563 0.7545 -0.0000
vn 0.6436 -0.7653 -0.0000
vn -0.6436 0.7653 -0.0000
vn 0.7653 0.6436 -0.0000
vn -0.7653 -0.6436 -0.0000
vn -0.0003 -0.6812 -0.7321
vn 1.0000 -0.0005 -0.0000
vn 0.0003 0.6812 0.7321
vn -1.0000 0.0005 -0.0000
vn -0.0004 -0.7321 0.6812
vn 0.0004 0.7321 -0.6812
vt 0.875000 0.500000
vt 0.875000 0.750000
vt 0.625000 0.750000
vt 0.625000 1.000000
vt 0.375000 1.000000
vt 0.625000 0.000000
vt 0.625000 0.250000
vt 0.375000 0.250000
vt 0.375000 0.500000
vt 0.375000 0.750000
vt 0.125000 0.750000
vt 0.625000 0.500000
vt 0.125000 0.500000
vt 0.375000 0.000000
s 0
usemtl Material
f 84/1/1 79/2/1 86/3/1
f 86/3/2 79/4/2 80/5/2
f 79/6/3 84/7/3 78/8/3
f 87/9/4 85/10/4 80/11/4
f 88/12/5 86/3/5 85/10/5
f 84/7/6 88/12/6 87/9/6
f 84/1/1 86/3/1 88/12/1
f 79/6/3 78/8/3 80/14/3
f 87/9/4 80/11/4 78/13/4
f 88/12/5 85/10/5 87/9/5
f 84/7/6 87/9/6 78/8/6
f 86/3/2 80/5/2 85/10/2
usemtl 
f 82/6/3 67/7/3 83/8/3
f 67/7/6 71/12/6 70/9/6
f 71/12/5 69/3/5 68/10/5
f 69/3/2 82/4/2 81/5/2
f 70/9/4 68/10/4 81/11/4
f 67/1/1 82/2/1 69/3/1
f 73/6/3 75/7/3 74/8/3
f 75/7/6 46/12/6 45/9/6
f 46/12/5 77/3/5 76/10/5
f 77/3/2 73/4/2 72/5/2
f 45/9/4 76/10/4 72/11/4
f 75/1/1 73/2/1 77/3/1
f 48/6/3 50/7/3 49/8/3
f 50/7/6 54/12/6 53/9/6
f 54/12/5 52/3/5 51/10/5
f 52/3/2 48/4/2 47/5/2
f 53/9/4 51/10/4 47/11/4
f 50/1/1 48/2/1 52/3/1
f 56/6/3 58/7/3 57/8/3
f 58/7/6 62/12/6 61/9/6
f 62/12/5 60/3/5 59/10/5
f 60/3/2 56/4/2 55/5/2
f 61/9/4 59/10/4 55/11/4
f 58/1/1 56/2/1 60/3/1
f 6/6/3 8/7/3 7/8/3
f 8/7/6 12/12/6 11/9/6
f 12/12/5 10/3/5 9/10/5
f 10/3/2 6/4/2 5/5/2
f 11/9/4 9/10/4 5/11/4
f 8/1/1 6/2/1 10/3/1
f 14/6/3 16/7/3 15/8/3
f 16/7/6 20/12/6 19/9/6
f 20/12/5 18/3/5 17/10/5
f 18/3/2 14/4/2 13/5/2
f 19/9/4 17/10/4 13/11/4
f 16/1/1 14/2/1 18/3/1
f 22/6/7 24/7/7 23/8/7
f 23/8/6 24/7/6 28/12/6
f 28/12/8 26/3/8 25/10/8
f 26/3/2 22/4/2 21/5/2
f 27/9/9 25/10/9 21/11/9
f 24/1/10 22/2/10 26/3/10
f 30/6/11 32/7/11 31/8/11
f 32/7/6 36/12/6 35/9/6
f 36/12/12 34/3/12 33/10/12
f 33/10/2 34/3/2 30/4/2
f 35/9/13 33/10/13 29/11/13
f 32/1/14 30/2/14 34/3/14
f 38/6/15 40/7/15 39/8/15
f 39/8/16 40/7/16 44/12/16
f 43/9/17 44/12/17 42/3/17
f 42/3/18 38/4/18 37/5/18
f 39/13/19 43/9/19 41/10/19
f 40/1/20 38/2/20 42/3/20
f 6/6/3 7/8/3 5/14/3
f 8/7/6 11/9/6 7/8/6
f 12/12/5 9/10/5 11/9/5
f 10/3/2 5/5/2 9/10/2
f 11/9/4 5/11/4 7/13/4
f 8/1/1 10/3/1 12/12/1
f 14/6/3 15/8/3 13/14/3
f 16/7/6 19/9/6 15/8/6
f 20/12/5 17/10/5 19/9/5
f 18/3/2 13/5/2 17/10/2
f 19/9/4 13/11/4 15/13/4
f 16/1/1 18/3/1 20/12/1
f 22/6/7 23/8/7 21/14/7
f 23/8/6 28/12/6 27/9/6
f 28/12/8 25/10/8 27/9/8
f 26/3/2 21/5/2 25/10/2
f 27/9/9 21/11/9 23/13/9
f 24/1/10 26/3/10 28/12/10
f 30/6/11 31/8/11 29/14/11
f 32/7/6 35/9/6 31/8/6
f 36/12/12 33/10/12 35/9/12
f 33/10/2 30/4/2 29/5/2
f 35/9/13 29/11/13 31/13/13
f 32/1/14 34/3/14 36/12/14
f 38/6/15 39/8/15 37/14/15
f 39/8/16 44/12/16 43/9/16
f 43/9/17 42/3/17 41/10/17
f 42/3/18 37/5/18 41/10/18
f 39/13/19 41/10/19 37/11/19
f 40/1/20 42/3/20 44/12/20
f 45/9/4 72/11/4 74/13/4
f 75/1/1 77/3/1 46/12/1
f 48/6/3 49/8/3 47/14/3
f 50/7/6 53/9/6 49/8/6
f 54/12/5 51/10/5 53/9/5
f 52/3/2 47/5/2 51/10/2
f 53/9/4 47/11/4 49/13/4
f 50/1/1 52/3/1 54/12/1
f 56/6/3 57/8/3 55/14/3
f 58/7/6 61/9/6 57/8/6
f 62/12/5 59/10/5 61/9/5
f 60/3/2 55/5/2 59/10/2
f 61/9/4 55/11/4 57/13/4
f 58/1/1 60/3/1 62/12/1
f 82/6/3 83/8/3 81/14/3
f 67/7/6 70/9/6 83/8/6
f 71/12/5 68/10/5 70/9/5
f 69/3/2 81/5/2 68/10/2
f 70/9/4 81/11/4 83/13/4
f 67/1/1 69/3/1 71/12/1
f 73/6/3 74/8/3 72/14/3
f 75/7/6 45/9/6 74/8/6
f 46/12/5 76/10/5 45/9/5
f 77/3/2 72/5/2 76/10/2
usemtl Material.001
f 1/1/1 3/2/1 65/3/1
f 65/3/2 3/4/2 4/5/2
f 3/6/3 1/7/3 2/8/3
f 64/9/4 66/10/4 4/11/4
f 63/12/5 65/3/5 66/10/5
f 1/7/6 63/12/6 64/9/6
f 64/9/4 4/11/4 2/13/4
f 63/12/5 66/10/5 64/9/5
f 1/7/6 64/9/6 2/8/6
f 1/1/1 65/3/1 63/12/1
f 65/3/2 4/5/2 66/10/2
f 3/6/3 2/8/3 4/14/3
